<svg xmlns="http://www.w3.org/2000/svg" viewBox="0 0 520 120" role="img" aria-label="Stellab OÜ">
  <title>Stellab OÜ</title>
  <g transform="translate(0,28)">
    <rect width="64" height="64" rx="14" fill="#0B1F2E"/>
    <path
      d="M44.5 22.5c0-5.2-4.5-8.5-12.2-8.5-7.1 0-12.3 2.8-14.8 7.4l5.2 3.1c1.5-2.7 4.6-4.4 9.4-4.4 4.2 0 6.5 1.5 6.5 3.8 0 2.5-2.1 3.7-7.4 5.1-7.3 1.9-13.1 4.7-13.1 12.2 0 5.6 4.7 9.2 12.8 9.2 7.6 0 13.2-3.1 15.7-8.1l-5.3-3c-1.7 3.1-5.1 5-10.2 5-4.6 0-7-1.8-7-4.4 0-2.7 2.3-4 7.9-5.5 7.6-2 12.7-5.1 12.7-12.1z"
      fill="#E8EEF2"
      transform="translate(0,0)"
    />
    <circle cx="48" cy="46" r="4.5" fill="#1FA7A0"/>
  </g>
  <text x="88" y="78" font-family="Georgia, 'Times New Roman', serif" font-size="64" font-weight="600" fill="#0B1F2E" letter-spacing="-1.5">Stellab</text>
  <text x="330" y="78" font-family="'Segoe UI', Arial, sans-serif" font-size="22" font-weight="600" fill="#0B1F2E" opacity="0.55">OÜ</text>
</svg>
